<svg xmlns="http://www.w3.org/2000/svg" viewBox="0 0 64 64" role="img" aria-labelledby="title">
  <title>Jada Knowledge Garden</title>
  <defs>
    <linearGradient id="g" x1="0%" x2="100%" y1="0%" y2="100%">
      <stop offset="0%" stop-color="#c55f3c" />
      <stop offset="100%" stop-color="#1f6c6a" />
    </linearGradient>
  </defs>
  <rect width="64" height="64" rx="18" fill="#f4efe4" />
  <path d="M18 17h19c7 0 11 3.7 11 9.9 0 4.6-2.8 7.7-7.3 8.8 4.9.8 8.3 4.5 8.3 9.6 0 7-5.1 11.7-13.5 11.7H18V17zm8 7v11h9.5c2.9 0 4.6-2.1 4.6-5.3 0-3.5-1.8-5.7-4.8-5.7H26zm0 18v12h10.4c3.4 0 5.4-2.2 5.4-5.8 0-3.7-2.1-6.2-5.5-6.2H26z" fill="url(#g)" />
</svg>
